<?xml version="1.0" standalone="no"?><!DOCTYPE svg PUBLIC "-//W3C//DTD SVG 1.1//EN" "http://www.w3.org/Graphics/SVG/1.1/DTD/svg11.dtd"><svg t="1744202959706" class="icon" viewBox="0 0 1024 1024" version="1.1" xmlns="http://www.w3.org/2000/svg" p-id="8224" xmlns:xlink="http://www.w3.org/1999/xlink" width="200" height="200"><path d="M960 938.666667h-21.333333V320a21.333333 21.333333 0 0 0-21.333334-21.333333h-21.333333V192a21.333333 21.333333 0 0 0-21.333333-21.333333h-149.333334V64a21.333333 21.333333 0 0 0-25.52-20.92L341.746667 114.666667A106.666667 106.666667 0 0 0 256 219.286667V384H170.666667V277.333333a21.333333 21.333333 0 0 0-42.666667 0v106.666667H64a21.333333 21.333333 0 0 0-21.333333 21.333333v469.333334a21.333333 21.333333 0 0 0 42.666666 0V426.666667h170.666667v128h-64a21.333333 21.333333 0 0 0-21.333333 21.333333v362.666667H64a21.333333 21.333333 0 0 0 0 42.666666h896a21.333333 21.333333 0 0 0 0-42.666666z m-106.666667-640h-128V213.333333h128z m-640 640V597.333333h213.333334v341.333334z m256 0V576a21.333333 21.333333 0 0 0-21.333333-21.333333H298.666667V219.286667a64.173333 64.173333 0 0 1 51.446666-62.753334L682.666667 90v208.666667h-64a21.333333 21.333333 0 0 0-21.333334 21.333333v618.666667z m170.666667 0V341.333333h256v597.333334zM426.666667 256h42.666666v85.333333h-42.666666z m0 128h42.666666v85.333333h-42.666666z m-128 298.666667h42.666666v85.333333h-42.666666z m469.333333-256h42.666667v85.333333h-42.666667z m0 128h42.666667v85.333333h-42.666667z m0 128h42.666667v85.333333h-42.666667z m0 128h42.666667v85.333333h-42.666667z" fill="#5C5C66" p-id="8225"></path></svg>