<?xml version="1.0" standalone="no"?><!DOCTYPE svg PUBLIC "-//W3C//DTD SVG 1.1//EN" "http://www.w3.org/Graphics/SVG/1.1/DTD/svg11.dtd"><svg t="1744363212593" class="icon" viewBox="0 0 1024 1024" version="1.1" xmlns="http://www.w3.org/2000/svg" p-id="2451" xmlns:xlink="http://www.w3.org/1999/xlink" width="200" height="200"><path d="M949.312589 1024H612.913114v-201.839685a100.919842 100.919842 0 1 0-201.839684 0v201.839685H74.673955a67.279895 67.279895 0 0 1-67.279895-67.279895v-538.239159a67.279895 67.279895 0 0 1 25.229961-52.478318l437.319317-349.855453a67.279895 67.279895 0 0 1 84.099868 0l437.319317 349.855453A67.279895 67.279895 0 0 1 1016.592484 417.135348v538.239159a67.279895 67.279895 0 0 1-67.279895 68.625493z m-235.479632-100.919842h201.839684V433.282523l-403.679369-322.943495-403.679369 322.943495v489.797635h201.839684v-100.919843a201.839685 201.839685 0 1 1 403.67937 0zM95.867122 443.374507z" fill="#7F0019" p-id="2452"></path></svg>