<?xml version="1.0" standalone="no"?><!DOCTYPE svg PUBLIC "-//W3C//DTD SVG 1.1//EN" "http://www.w3.org/Graphics/SVG/1.1/DTD/svg11.dtd"><svg t="1744380574742" class="icon" viewBox="0 0 1024 1024" version="1.1" xmlns="http://www.w3.org/2000/svg" p-id="4580" data-spm-anchor-id="a313x.search_index.0.i6.36353a81Lemux9" xmlns:xlink="http://www.w3.org/1999/xlink" width="200" height="200"><path d="M502.784 501.76c-22.528 0-45.056-3.584-66.56-10.752l-289.792-107.52C95.744 364.032 92.16 332.8 92.16 320c1.024-16.384 9.728-31.232 23.04-40.96 14.336-10.752 30.72-18.432 48.128-22.016L452.608 184.32c31.744-7.168 64.512-7.168 96.256 0l309.248 72.192c44.544 10.24 71.68 34.304 73.216 64 0 13.312-3.584 45.568-56.832 64l-308.736 107.52c-19.968 6.144-41.472 9.728-62.976 9.728zM140.8 322.56c0 1.536 5.12 8.704 22.528 14.848l290.304 107.52c31.744 10.24 65.536 10.24 97.28 0l308.224-106.496c18.944-6.656 24.064-13.824 24.064-15.36s-7.68-12.288-35.84-18.944L537.6 230.912c-24.064-5.632-49.152-5.632-73.728 0L175.616 303.616c-27.648 7.168-34.304 16.896-34.816 18.944z" p-id="4581" fill="#7F0019"></path><path d="M190.464 421.376l-27.136 7.168c-17.408 3.584-33.792 11.264-48.128 22.016-13.312 9.728-21.504 24.576-23.04 40.96-0.512 12.8 3.072 44.032 54.272 62.976l289.792 107.52c41.984 14.336 87.552 14.336 129.536 1.024l308.736-107.52c53.248-18.432 57.344-50.688 56.832-64-1.536-29.696-28.672-53.248-73.216-64l-26.624-6.144-85.504 29.696 101.376 23.552c27.648 6.656 35.328 16.896 35.84 18.944 0.512 2.048-5.632 9.216-24.064 15.36l-308.224 107.52c-31.744 10.24-65.536 10.24-97.28 0l-290.304-107.52c-16.896-6.144-22.016-13.824-22.528-14.848s7.168-12.288 34.816-18.944L271.36 451.584" p-id="4582" fill="#7F0019"></path><path d="M190.464 593.92l-27.648 6.656c-17.408 4.096-33.28 11.776-47.616 22.528-13.312 9.728-21.504 24.576-23.04 40.448-0.512 12.8 3.072 44.032 54.272 62.976l289.792 107.52c21.504 7.68 44.032 11.264 66.56 10.752 21.504 0 43.008-3.072 63.488-10.24l308.736-107.52c53.248-18.432 57.344-50.688 56.832-64-1.536-29.696-28.672-53.248-73.216-64l-26.624-6.144-85.504 29.184 101.376 23.552c27.648 6.656 35.328 16.896 35.84 18.944s-5.632 9.216-24.064 15.36L551.424 788.48c-31.744 10.24-65.536 10.24-97.28 0l-290.816-107.52c-16.896-6.144-22.016-13.824-22.528-14.848-0.512-1.024 7.168-11.776 34.816-18.432l95.232-24.576" p-id="4583" fill="#7F0019"></path></svg>