<?xml version="1.0" standalone="no"?><!DOCTYPE svg PUBLIC "-//W3C//DTD SVG 1.1//EN" "http://www.w3.org/Graphics/SVG/1.1/DTD/svg11.dtd"><svg t="1744202877386" class="icon" viewBox="0 0 1024 1024" version="1.1" xmlns="http://www.w3.org/2000/svg" p-id="5595" xmlns:xlink="http://www.w3.org/1999/xlink" width="200" height="200"><path d="M418.856 741.528h207.664c6.36 0 11.672 5.312 11.672 11.672v11.672c0 6.384-5.312 11.688-11.672 11.688H418.856a11.776 11.776 0 0 1-11.672-11.688V753.2c0-6.36 5.304-11.672 11.672-11.672M649.504 518.32c-19.112 0-34.672 15.928-34.672 35.376 0 19.464 15.56 35.376 34.672 35.376s34.672-15.912 34.672-35.376c-0.008-19.448-15.584-35.376-34.672-35.376m34.664-152.816c0-13.088-10.248-23.696-23-23.696H384.184c-12.736 0-22.992 10.608-22.992 23.696V459.6c0 13.088 10.256 23.704 22.992 23.704h276.992c12.752 0 23-10.616 23-23.704V365.504zM395.512 589.072c19.096 0 34.664-15.912 34.664-35.376 0-19.448-15.568-35.376-34.664-35.376-19.112 0-34.672 15.928-34.672 35.376 0.352 19.464 15.56 35.376 34.672 35.376m347.016 208.008c-10.608 6.016-23.704 2.488-29.72-8.136l-47.408-83.496a69.392 69.392 0 0 1-12.024 1.064H392.32c-4.24 0-8.136-0.36-12.024-1.064l-47.408 83.496c-6.016 10.6-19.448 14.152-29.712 8.136-10.616-6.016-14.144-19.816-8.136-30.424l44.216-77.832c-23.344-16.984-37.496-45.28-35.368-76.776l16.624-253.28c2.832-42.456 29.712-76.064 75.352-76.064h69.336c0-32.536 25.816-58.72 57.664-58.72 31.832 0 57.656 26.184 57.656 58.72h80.656c45.984 0 60.84 33.608 63.672 76.064l16.624 253.28c2.144 31.496-12.016 59.792-35.36 76.776l44.208 77.832c6.016 10.968 2.48 24.408-7.792 30.424" fill="#2c2c2c" p-id="5596"></path></svg>