<?xml version="1.0" standalone="no"?><!DOCTYPE svg PUBLIC "-//W3C//DTD SVG 1.1//EN" "http://www.w3.org/Graphics/SVG/1.1/DTD/svg11.dtd"><svg t="1744380454751" class="icon" viewBox="0 0 1024 1024" version="1.1" xmlns="http://www.w3.org/2000/svg" p-id="1595" xmlns:xlink="http://www.w3.org/1999/xlink" width="200" height="200"><path d="M790.308571 810.130286c28.16-7.753143 51.419429-23.478857 69.851429-47.177143 18.432-23.478857 27.574857-50.761143 27.574857-81.188572V212.553143a111.177143 111.177143 0 0 0-11.337143-50.395429 159.670857 159.670857 0 0 0-28.818285-40.082285 224.109714 224.109714 0 0 0-38.912-31.670858A590.189714 590.189714 0 0 0 724.699429 44.909714a361.472 361.472 0 0 0-54.052572-18.139428 532.48 532.48 0 0 0-71.972571-12.946286A851.529143 851.529143 0 0 0 503.296 9.142857a654.994286 654.994286 0 0 0-146.066286 14.848c-18.139429 4.388571-33.572571 9.289143-46.665143 15.067429-12.946286 5.778286-24.941714 11.044571-35.693714 16.091428-10.825143 4.900571-23.625143 12.434286-38.4 22.454857-14.701714 10.166857-29.257143 22.016-43.373714 35.913143-14.043429 13.824-25.965714 29.257143-35.766857 46.006857-9.654857 16.822857-14.555429 34.669714-14.555429 53.101715v469.211428c0 30.427429 9.069714 57.709714 26.989714 81.188572 18.139429 23.625143 41.252571 39.350857 69.412572 47.177143l-142.994286 204.726857h139.702857l29.257143-65.389715h500.150857l29.257143 65.389715h139.702857l-143.945143-204.8zM389.558857 88.283429a33.206857 33.206857 0 0 1 23.917714-9.581715h205.750858a33.133714 33.133714 0 0 1 33.499428 34.157715 31.597714 31.597714 0 0 1-9.801143 23.552 32.036571 32.036571 0 0 1-23.698285 9.728H413.476571a32.182857 32.182857 0 0 1-23.917714-9.728 32.182857 32.182857 0 0 1-9.801143-23.552c0-9.947429 3.364571-18.139429 9.801143-24.576zM209.846857 212.553143h609.572572v391.094857H209.846857V212.553143z m68.242286 535.625143a46.518857 46.518857 0 0 1-33.499429 13.824 48.054857 48.054857 0 0 1-34.742857-13.824 45.714286 45.714286 0 0 1-14.043428-33.28c0-13.531429 4.754286-24.941714 14.043428-34.377143a47.981714 47.981714 0 0 1 34.742857-13.824c12.873143 0 24.137143 4.681143 33.499429 13.824a46.957714 46.957714 0 0 1 14.116571 34.377143 45.568 45.568 0 0 1-14.116571 33.28z m17.334857 134.802285l31.451429-67.364571h376.685714l30.427428 67.364571H295.424z m455.826286-134.802285a45.348571 45.348571 0 0 1-14.043429-33.28c0-13.531429 4.681143-24.941714 14.043429-34.377143 9.508571-9.142857 20.918857-13.824 34.669714-13.824s25.307429 4.681143 34.742857 13.824a47.177143 47.177143 0 0 1 14.043429 34.377143 45.714286 45.714286 0 0 1-14.043429 33.28c-9.435429 9.142857-20.992 13.824-34.742857 13.824s-25.234286-4.681143-34.669714-13.824z" fill="#7F0019" p-id="1596"></path></svg>