<?xml version="1.0" standalone="no"?><!DOCTYPE svg PUBLIC "-//W3C//DTD SVG 1.1//EN" "http://www.w3.org/Graphics/SVG/1.1/DTD/svg11.dtd"><svg t="1744203205019" class="icon" viewBox="0 0 1024 1024" version="1.1" xmlns="http://www.w3.org/2000/svg" p-id="15942" xmlns:xlink="http://www.w3.org/1999/xlink" width="200" height="200"><path d="M671.007289 535.95003a63.412496 63.412496 0 0 0-25.687498-56.999997 258.412484 258.412484 0 0 1-105.099994-222.374986C540.219797 113.750056 628.819792 0.000062 737.807285 0.000062s197.499988 113.749993 197.499988 254.174985a258.749984 258.749984 0 0 1-106.699993 222.499986 63.749996 63.749996 0 0 0-25.987499 57.199997c9.887499 113.387493 30.887498 349.999979 30.887499 382.862477A100.587494 100.587494 0 0 1 739.907285 1023.75c-0.7 0-1.4 0.1-2.1 0.1h-2.399999A94.587494 94.587494 0 0 1 640.869791 931.712506a88.524995 88.524995 0 0 1 0.5-12.6c0-42.199997 19.799999-273.674983 29.587498-383.162476zM120.369823 0.000062a31.949998 31.949998 0 0 1 31.987498 31.999999v263.974983a23.949999 23.949999 0 0 0 23.999999 23.999999 23.949999 23.949999 0 0 0 23.999998-23.999999V32.000061A31.962498 31.962498 0 0 1 232.357316 0.000062a31.949998 31.949998 0 0 1 31.987498 31.999999v271.974983A16.062499 16.062499 0 0 0 280.357313 320.000043a16.049999 16.049999 0 0 0 15.987499-15.999999V32.000061A31.962498 31.962498 0 0 1 328.36981 0.000062a31.962498 31.962498 0 0 1 31.999998 31.999999v263.974983A23.949999 23.949999 0 0 0 384.344807 320.000043 23.949999 23.949999 0 0 0 408.369805 295.975044V32.000061A31.949998 31.949998 0 0 1 440.332304 0.000062a31.962498 31.962498 0 0 1 31.999998 31.999999v271.974983a192.287488 192.287488 0 0 1-102.499994 169.99999 24.187499 24.187499 0 0 0-12.787499 24.274998l44.799997 381.962477c3.4875 78.199995-51.999997 143.749991-121.599993 143.749991s-125.087492-65.587496-121.587492-143.749991L200.957318 497.250032A24.999998 24.999998 0 0 0 188.057319 472.500034 194.162488 194.162488 0 0 1 144.619822 439.762536 191.762488 191.762488 0 0 1 88.369825 303.975044V32.000061A31.962498 31.962498 0 0 1 120.369823 0.000062z" p-id="15943"></path></svg>